<svg width="975" height="109" viewBox="0 0 975 109" fill="none" xmlns="http://www.w3.org/2000/svg">
<path fill-rule="evenodd" clip-rule="evenodd" d="M361.734 13.7836C355.751 15.2866 350.649 18.2946 346.738 22.6226C342.059 27.8026 340.339 31.2186 338.515 38.9546C332.142 65.9855 346.493 89.2635 369.5 89.2135C373.35 89.2055 378.275 88.5845 380.444 87.8345C386.263 85.8225 393.27 78.7426 396.62 71.4886C399.334 65.6136 399.498 64.5065 399.465 52.2546C399.425 37.5356 397.817 31.7316 391.481 23.4336C385.336 15.3856 372.254 11.1416 361.734 13.7836ZM60.297 17.5466L64 21.3386V34.3456V47.3526L60.53 48.6076C57.575 49.6756 53 54.2556 53 56.1446C53 56.4636 54.463 55.8335 56.25 54.7435C59.628 52.6845 64 52.0796 64 53.6716C64 54.1756 63.437 54.8146 62.75 55.0926C61.75 55.4956 61.75 55.6126 62.75 55.6756C63.68 55.7346 64 59.0046 64 68.4626V81.1705L60.25 85.0135L56.5 88.8565L69.933 88.6955C81.983 88.5516 83.506 88.7265 84.729 90.3945C86.036 92.1775 85.523 92.2765 72.296 92.7975L58.5 93.3405L73.827 93.5475L89.155 93.7545L84.577 88.3965L80 83.0385V70.4356V57.8326L88.75 57.4995L97.5 57.1656L88.25 56.9606L79 56.7546V70.0316C79 80.8256 79.313 83.7565 80.673 85.6975C82.579 88.4195 81.052 87.8545 77.25 84.4315C75.112 82.5065 75 81.6785 74.999 67.8305V53.2546H87.999C97.236 53.2546 100.998 53.5926 100.999 54.4216C101 55.0625 100.437 55.8146 99.75 56.0926C98.75 56.4956 98.75 56.6126 99.75 56.6756C100.68 56.7346 101 59.9925 101 69.3985V82.0425L97.25 85.3905L93.5 88.7375L106.802 88.6376C118.447 88.5506 120.359 88.7695 122.161 90.3965C124.179 92.2185 123.943 92.2645 109.859 92.7965L95.5 93.3385L110.834 93.5465L126.168 93.7545L123.122 89.9085C121.446 87.7925 119.384 85.4875 118.538 84.7855C117.215 83.6885 117 79.2146 117 52.8206V22.1306L120.079 19.8546C121.772 18.6026 122.892 17.3136 122.568 16.9896C122.244 16.6656 120.634 17.6896 118.99 19.2646L116 22.1286V52.7196C116 79.8795 116.19 83.5816 117.698 85.7346C119.313 88.0396 119.215 88.0205 115.698 85.3375L112 82.5175V52.4235V22.3306L116.208 18.0426L120.416 13.7546H107.512H94.608L97.804 17.0526L101 20.3495V33.5526V46.7546H90.5H80V34.5596C80 22.6626 80.067 22.2896 82.75 19.3096L85.5 16.2546L82.25 19.1916L79 22.1286V34.4416C79 46.0876 78.892 46.7546 77 46.7546C75.105 46.7546 75 46.0876 75 34.0466V21.3386L78.703 17.5466L82.406 13.7546H69.5H56.594L60.297 17.5466ZM135.336 17.3886L140 21.0226V33.2766V45.5316L136.391 46.2085C133.054 46.8345 128 50.8816 128 52.9266C128 53.4106 129.328 53.1196 130.95 52.2806C134.75 50.3156 140 50.2575 140 52.1815C140 52.9655 139.213 53.8136 138.25 54.0656C136.583 54.5006 136.583 54.5285 138.25 54.6385C139.823 54.7425 139.999 56.0926 139.99 68.0046L139.98 81.2545L135.28 84.5045L130.581 87.7545H162.775H194.969L191.114 82.6605C188.993 79.8585 186.671 75.7896 185.955 73.6175L184.652 69.6686L181.961 73.9616C180.481 76.3226 178.422 78.9976 177.385 79.9055C174.751 82.2115 168.524 83.7426 161.75 83.7486L156 83.7545V69.3025V54.8496L162.25 54.4946L168.5 54.1395L161.75 53.9476L155 53.7546V68.7546C155 83.0876 154.911 83.7545 153 83.7545C151.081 83.7545 151 83.0876 151 67.2546V50.7546H159.5C164.175 50.7546 168.018 51.0916 168.041 51.5046C168.063 51.9175 169.413 53.8126 171.041 55.7166L174 59.1786V47.7575V36.3356L170.75 41.0345C167.514 45.7155 167.476 45.7346 161.717 45.7446L155.934 45.7546L156.217 34.5046L156.5 23.2546L163 22.6516L169.5 22.0486L162.5 22.1516L155.5 22.2546L155.218 34.0046C154.956 44.9296 154.798 45.7546 152.968 45.7546C151.108 45.7546 151 45.0155 151 32.2546V18.7546H160.532C172.577 18.7546 175.992 20.0956 179.986 26.3936C181.644 29.0076 183 30.4746 183 29.6546C183 28.8336 184.999 24.9206 187.442 20.9586L191.883 13.7546H161.277H130.672L135.336 17.3886ZM208.75 17.3576L213 20.9206V51.6236V82.3265L208.818 85.5406L204.636 88.7545H234.973C264.022 88.7545 265.241 88.6786 263.696 86.9706C262.808 85.9895 260.323 81.4456 258.173 76.8736C254.505 69.0696 254.222 68.7346 253.555 71.4076C251.246 80.6555 244.683 84.7545 232.184 84.7545H224L223.985 53.0046L223.969 21.2546L228.235 17.5346L232.5 13.8146L218.5 13.8036L204.5 13.7936L208.75 17.3576ZM274.75 17.3576L279 20.9206V51.6236V82.3265L274.835 85.5275L270.67 88.7285L269.09 86.4915C268.221 85.2615 265.832 81.1045 263.781 77.2545C261.73 73.4045 260.041 70.6065 260.026 71.0365C259.97 72.7175 262.984 78.8085 266.331 83.7795C268.263 86.6496 269.62 89.7295 269.347 90.6255C268.941 91.9526 269.058 91.9296 269.974 90.5045C271.005 88.9016 273.628 88.7545 301.205 88.7545C330.031 88.7545 331.241 88.6786 329.696 86.9706C328.808 85.9895 326.323 81.4456 324.173 76.8736C320.505 69.0696 320.222 68.7346 319.555 71.4076C317.246 80.6555 310.683 84.7545 298.184 84.7545H290L289.985 53.0046L289.969 21.2546L294.235 17.5346L298.5 13.8146L284.5 13.8036L270.5 13.7936L274.75 17.3576ZM192.21 19.5046C191.15 21.0166 189.74 23.3796 189.075 24.7546L187.866 27.2546L189.826 24.8206C192.297 21.7516 195.27 16.7546 194.625 16.7546C194.356 16.7546 193.269 17.9926 192.21 19.5046ZM230.437 20.0046L227.5 23.2546L230.75 20.3176C233.779 17.5796 234.46 16.7546 233.687 16.7546C233.515 16.7546 232.052 18.2166 230.437 20.0046ZM296.437 20.0046L293.5 23.2546L296.75 20.3176C298.537 18.7025 300 17.2396 300 17.0676C300 16.2946 299.175 16.9756 296.437 20.0046ZM378.763 20.3716C385.272 25.0976 388.655 38.3426 387.673 55.2546C386.506 75.3656 380.568 84.7545 369.018 84.7545C360.473 84.7545 354.651 80.0676 351.355 70.5355C348.854 63.3005 348.791 41.7396 351.249 33.6916C354.8 22.0596 360.485 17.3706 370.263 18.0086C373.944 18.2485 377.016 19.1026 378.763 20.3716ZM394 21.2546C395.292 22.6296 396.574 23.7546 396.849 23.7546C397.124 23.7546 396.292 22.6296 395 21.2546C393.708 19.8796 392.426 18.7546 392.151 18.7546C391.876 18.7546 392.708 19.8796 394 21.2546ZM369.25 22.4436C370.212 22.6955 371.788 22.6955 372.75 22.4436C373.712 22.1925 372.925 21.9866 371 21.9866C369.075 21.9866 368.288 22.1925 369.25 22.4436ZM361.77 25.0096C356.526 29.3205 354.645 35.7386 354.19 50.8706C353.726 66.2986 355.173 73.6685 359.609 78.4695L362.183 81.2545L360.098 78.1085C356.266 72.3285 354.739 63.5446 355.169 49.7536C355.516 38.5956 355.863 36.5555 358.236 31.7136C359.708 28.7116 362.169 25.4786 363.706 24.5316C365.243 23.5836 366.05 22.7976 365.5 22.7866C364.95 22.7746 363.271 23.7746 361.77 25.0096ZM398.813 27.7546C401.645 32.6856 403.819 40.8465 404.939 50.7546L405.9 59.2546L405.506 50.7546C405.068 41.3125 402.117 30.5896 398.9 26.7546L396.802 24.2546L398.813 27.7546ZM132 55.7546C130.172 56.9356 131.751 56.9356 134.5 55.7546C135.819 55.1875 135.989 54.8765 135 54.8405C134.175 54.8096 132.825 55.2215 132 55.7546ZM56.861 57.8135L54.5 59.8736L57.5 58.1166C61.448 55.8046 61.507 55.7546 60.277 55.7546C59.697 55.7546 58.159 56.6815 56.861 57.8135ZM404.136 61.7546C404.046 63.1296 403.741 65.3796 403.458 66.7546L402.944 69.2546L404.018 66.7936C404.609 65.4396 404.914 63.1896 404.696 61.7936L404.3 59.2546L404.136 61.7546ZM326.026 71.0365C325.97 72.7175 328.984 78.8085 332.331 83.7795C334.277 86.6685 335.614 89.7235 335.328 90.6255C334.885 92.0216 334.962 92.0415 335.863 90.7645C336.635 89.6705 336.467 88.6056 335.234 86.7645C334.309 85.3836 331.865 81.1045 329.803 77.2545C327.74 73.4045 326.041 70.6065 326.026 71.0365ZM190.016 73.2546C190.004 74.6966 193.718 80.5745 197.757 85.5025C203.651 92.6955 203.7 92.6835 167.139 93.0055L135.5 93.2835L167.581 93.5195L199.662 93.7545L201.012 91.2325C202.27 88.8805 202.117 88.4565 198.748 84.9825C196.76 82.9315 193.984 79.2296 192.579 76.7546C191.174 74.2796 190.02 72.7046 190.016 73.2546ZM399.279 76.6915C395.713 82.8876 392.038 86.6916 386.612 89.8036C380.888 93.0865 381.041 93.7945 386.835 90.8385C391.11 88.6575 398.03 81.5306 400.489 76.7756C402.85 72.2106 401.896 72.1435 399.279 76.6915ZM222.25 93.5025C230.912 93.6695 245.087 93.6695 253.75 93.5025C262.412 93.3365 255.325 93.1995 238 93.1995C220.675 93.1995 213.587 93.3365 222.25 93.5025ZM288.25 93.5025C296.912 93.6695 311.087 93.6695 319.75 93.5025C328.413 93.3365 321.325 93.1995 304 93.1995C286.675 93.1995 279.588 93.3365 288.25 93.5025ZM378.813 93.4375C379.534 93.7265 380.397 93.6905 380.729 93.3585C381.061 93.0265 380.471 92.7906 379.417 92.8335C378.252 92.8815 378.015 93.1185 378.813 93.4375ZM369.75 94.4605C370.988 94.6985 373.012 94.6985 374.25 94.4605C375.488 94.2215 374.475 94.0266 372 94.0266C369.525 94.0266 368.512 94.2215 369.75 94.4605Z" fill="#D3AD69"/>
<path fill-rule="evenodd" clip-rule="evenodd" d="M535 3.54351C531.15 5.66851 525.412 8.36551 522.25 9.53751C519.088 10.7095 516.5 11.9885 516.5 12.3795C516.5 12.7705 517.374 13.8815 518.443 14.8495C521.191 17.3355 521.83 21.4545 520.505 28.1305C518.879 36.3255 511.224 64.4585 510.75 63.9835C510.532 63.7655 507.691 54.0245 504.436 42.3365C501.18 30.6475 498.288 20.8555 498.009 20.5755C496.259 18.8265 497.273 23.5835 503.159 44.7555C508.458 63.8175 509.587 69.0955 508.88 71.5175C508.117 74.1325 507.008 70.9245 500.545 47.4195L493.09 20.3045L490.103 20.6025L487.115 20.9005L481.115 42.6245C477.814 54.5725 474.963 64.1965 474.779 64.0125C474.594 63.8275 472.282 55.9905 469.641 46.5965L464.838 29.5165L467.396 26.9585C469.278 25.0775 469.544 24.4005 468.402 24.4005C467.547 24.4005 465.902 25.4135 464.744 26.6505L462.64 28.9005L468.053 47.9005C473.488 66.9775 474.177 70.7845 472.638 73.2125C472.105 74.0515 470.432 69.5545 467.986 60.7125C465.885 53.1155 462.931 42.6255 461.422 37.4005L458.678 27.9005L462.839 24.1805L467 20.4605L452.5 20.4335L438 20.4055L442.339 24.1535L446.678 27.9005L455.166 58.3975L463.654 88.8945L459.827 92.1325L456 95.3705L469.55 95.3855C482.444 95.3995 485.5 96.0105 485.5 98.5715C485.5 98.9955 479.538 99.4825 472.25 99.6535L459 99.9635L474.318 100.183L489.636 100.401L487.592 97.6505C486.467 96.1375 484.268 93.3865 482.705 91.5355L479.863 88.1695L484.652 70.6485C487.286 61.0115 489.566 53.0025 489.72 52.8505C489.874 52.6975 492.219 60.6985 494.93 70.6275L499.86 88.6825L496.195 92.0415L492.529 95.4005H505.86C517.855 95.4005 519.369 95.5975 520.974 97.3715C522.739 99.3225 522.617 99.3455 508.879 99.6525L495 99.9615L510.835 100.182L526.669 100.401L521.03 93.9775L515.39 87.5535L522.047 63.2275C531.434 28.9245 535.496 18.6005 543.718 8.15051C545.625 5.72651 546.181 4.40051 545.29 4.40051C543.306 4.40051 535.3 16.9285 531.591 25.8375C529.845 30.0295 524.983 45.8215 520.785 60.9305L513.152 88.4015L515.572 91.1505C517.9 93.7955 517.868 93.7875 514.746 90.9635C512.566 88.9915 511.5 87.1125 511.5 85.2445C511.5 81.6745 522.503 41.4705 527.134 28.1155C530.975 17.0415 532.714 13.6895 538.801 5.62551C540.991 2.72351 542.606 0.198507 542.391 0.0145073C542.176 -0.169493 538.85 1.41851 535 3.54351ZM561.673 20.8255C552.433 23.8355 545.863 30.5065 541.904 40.9005C540.399 44.8515 540 48.5265 540 58.4235C540 70.5595 540.101 71.1515 543.287 77.6205C554.587 100.57 585.64 103.082 597.969 82.0445C605.113 69.8535 604.961 46.4405 597.659 34.4005C594.965 29.9575 589.102 24.2845 585 22.1505C579.901 19.4975 567.851 18.8135 561.673 20.8255ZM633 20.8165C627.304 22.2355 617.5 26.3275 617.5 27.2865C617.5 27.6385 618.512 28.3705 619.75 28.9135C621.918 29.8645 622.01 30.4405 622.277 44.6505L622.553 59.4005H619.002C616.11 59.4005 615.269 59.8765 614.475 61.9655C613.086 65.6205 613.049 65.5905 618 64.8485C621.671 64.2975 622.5 64.4565 622.5 65.7075C622.5 66.5975 621.246 67.5175 619.511 67.8975C615.084 68.8705 614.521 70.6745 618.902 69.8525L622.5 69.1775V78.9335V88.6885L618.75 92.0025L615 95.3175L627.854 95.3585L640.707 95.4005L637.604 91.8655L634.5 88.3305V75.4455V62.5595L637.25 62.0335C645.454 60.4645 648.332 60.3195 649.025 61.4415C650.042 63.0865 647.823 64.2565 642.25 65.0135L637.5 65.6585V77.6405V89.6225L641.569 94.4835L645.638 99.3435L631.819 99.6525L618 99.9615L633.966 100.182L649.932 100.401L644.716 95.1195L639.5 89.8375V78.6385V67.4385L642.25 66.8365C643.762 66.5055 646.217 65.8535 647.704 65.3855C650.291 64.5735 650.497 64.7775 652.504 70.1395C655.001 76.8145 657.935 87.6125 659.503 95.9005C661.437 106.126 660.963 105.663 666.3 102.535C668.885 101.019 673.095 98.9175 675.656 97.8665L680.312 95.9545L674.469 89.7075C668.333 83.1485 662.281 73.7355 658.106 64.2585L655.62 58.6155L661.998 55.4755C672.353 50.3785 676.795 42.9245 674.518 34.4675C673.03 28.9425 666.195 23.1395 658.697 21.0355C651.913 19.1325 640.163 19.0315 633 20.8165ZM694.25 23.6025L697.5 26.9955V58.6165V90.2375L693.75 92.5685L690 94.9005L693 95.2505C694.65 95.4435 703.425 95.4015 712.5 95.1585C731.452 94.6515 735.099 93.5835 742.206 86.4665C749.121 79.5395 750.967 73.4295 750.985 57.4005C750.999 44.8665 750.81 43.4955 748.349 38.2455C746.89 35.1345 743.836 30.7835 741.562 28.5765C735.014 22.2215 730.811 21.1845 709.5 20.6625L691 20.2095L694.25 23.6025ZM765.75 23.9415L769.5 27.4275V58.3415V89.2545L765.772 92.3275L762.044 95.4005H792.861H823.678L821.26 92.5265C819.93 90.9465 817.33 86.2135 815.482 82.0095L812.123 74.3655L810.349 79.0395C807.075 87.6635 801.092 91.4005 790.557 91.4005H786.5V60.5875V29.7745L789.464 26.9345C791.095 25.3725 792.169 23.6745 791.852 23.1605C791.534 22.6465 789.75 23.7045 787.887 25.5095L784.5 28.7925V60.0965C784.5 80.2995 784.145 91.4005 783.5 91.4005C782.854 91.4005 782.5 80.1645 782.5 59.6925V27.9845L786.203 24.1925L789.906 20.4005L775.953 20.4275L762 20.4545L765.75 23.9415ZM833.32 23.9785L837.5 27.5565V39.9785C837.5 50.5305 837.267 52.4005 835.95 52.4005C833.038 52.4005 828.535 55.4315 826.98 58.4395L825.426 61.4435L829.198 59.4225C833.561 57.0835 837.5 56.7795 837.5 58.7815C837.5 59.5845 835.615 60.6375 833 61.2965C830.525 61.9195 828.5 62.8725 828.5 63.4145C828.5 64.6865 828.598 64.6755 832.846 62.9005C834.82 62.0755 836.675 61.4005 836.968 61.4005C837.261 61.4005 837.5 67.4695 837.5 74.8865V88.3725L833.5 91.0195C831.3 92.4755 829.5 93.8315 829.5 94.0335C829.5 94.2355 844.172 94.4005 862.104 94.4005H894.707L891.537 90.7895C888.634 87.4835 885.54 81.7895 884.039 76.9935C883.554 75.4435 882.839 76.0985 880.221 80.4935C876.283 87.1045 872.275 89.2845 862.561 90.0985L855.5 90.6905V76.0935V61.4955L861.75 61.1405L868 60.7855L860.75 60.5935L853.5 60.4005V75.4005C853.5 89.7335 853.411 90.4005 851.5 90.4005C849.581 90.4005 849.5 89.7335 849.5 73.9005V57.4005L857.25 57.3925L865 57.3845L869.212 62.1425L873.423 66.9005L873.462 54.6505C873.483 47.9135 873.313 42.4005 873.085 42.4005C872.857 42.4005 871.019 44.6505 869 47.4005C865.459 52.2245 865.157 52.4005 860.415 52.4005H855.5V41.4455V30.4915L859.062 29.8225C864.894 28.7285 871.172 29.9125 874.994 32.8275C876.922 34.2985 878.5 35.1685 878.5 34.7605C878.5 34.3525 879.122 34.8685 879.882 35.9085C881.168 37.6675 881.454 37.4195 883.994 32.3495C885.495 29.3525 887.821 25.4385 889.163 23.6505L891.602 20.4005H860.371H829.14L833.32 23.9785ZM594.802 26.7515C603.545 35.2645 606.953 46.0825 606.323 63.3145C606 72.1425 605.496 74.8505 603.288 79.6185C599.973 86.7755 592.71 94.6365 586.741 97.5265C581.916 99.8615 571.019 100.67 565 99.1365C562.506 98.5015 562.318 98.5655 563.887 99.5125C567.215 101.525 577.656 101.788 583.756 100.015C599.336 95.4855 608.5 80.4725 608.5 59.4765C608.5 49.5665 606.97 42.2095 603.492 35.4005C601.453 31.4095 595.514 25.0105 592.221 23.2575C590.999 22.6065 592.161 24.1795 594.802 26.7515ZM889.798 27.2205C885.575 33.5575 883.296 38.2925 883.781 39.7185C884.003 40.3685 885.217 38.8755 886.479 36.4005C887.741 33.9255 890.064 30.0165 891.642 27.7125C893.22 25.4095 894.152 23.3035 893.713 23.0325C893.275 22.7615 891.513 24.6455 889.798 27.2205ZM650.953 24.5095C665.076 28.4305 665.999 45.8455 652.442 52.6105C649.449 54.1045 645.313 55.6185 643.25 55.9745L639.5 56.6235V43.0305V29.4385L642.047 28.7995C646.039 27.7975 652.624 29.2445 657 32.0845L661 34.6795L658.56 32.0235C655.453 28.6415 650.472 27.1715 643.5 27.5785L638 27.9005L637.723 42.6505C637.494 54.8505 637.192 57.4005 635.973 57.4005C634.737 57.4005 634.5 54.8305 634.5 41.4295V25.4575L637.75 24.5195C642.244 23.2215 646.305 23.2185 650.953 24.5095ZM578.914 26.3565C585.599 29.7655 588.106 35.0325 589.562 48.7335C591.431 66.3175 587.457 83.5905 580.364 88.7155C576.183 91.7375 569.456 92.0415 564.106 89.4515C555.362 85.2185 551.972 75.0545 552.748 55.4005C553.452 37.5915 556.434 30.4285 565 25.9735C569.067 23.8575 574.295 24.0015 578.914 26.3565ZM721.53 26.5005C732.194 28.7875 737.477 37.3435 738.284 53.6355C739.015 68.3975 735.647 81.3485 729.674 86.7455C727.186 88.9945 720.981 91.2975 717.25 91.3565L714.5 91.4005V60.9195V30.4385L717.026 29.8045C719.342 29.2235 723.955 30.0325 729 31.9045C730.517 32.4675 730.396 32.1935 728.5 30.7735C726.655 29.3915 724.297 28.9005 719.5 28.9005H713L712.736 60.1505C712.509 87.0095 712.263 91.4005 710.986 91.4005C709.701 91.4005 709.5 86.9265 709.5 58.4005V25.4005H712.951C714.849 25.4005 718.709 25.8955 721.53 26.5005ZM869.873 26.4865C873.62 27.5275 878.5 31.6195 878.5 33.7205C878.5 34.2865 877.488 33.8005 876.25 32.6415C872.827 29.4355 869.09 28.4005 860.935 28.4005H853.5V40.4005C853.5 51.7335 853.389 52.4005 851.5 52.4005C849.599 52.4005 849.5 51.7335 849.5 38.9005V25.4005L857.75 25.4065C862.288 25.4095 867.743 25.8955 869.873 26.4865ZM565.398 30.6515C563.529 31.8905 560.997 34.9275 559.77 37.4015C555.541 45.9325 554.463 65.5035 557.598 76.8095C558.899 81.5035 563.044 88.0115 565.277 88.8685C566.723 89.4235 566.719 89.2995 565.232 87.6565C559.717 81.5625 556.775 65.9025 558.404 51.3095C560.5 32.5385 567.926 25.7795 580.29 31.3915C582.649 32.4625 584.282 32.8565 583.918 32.2675C582.808 30.4715 576.789 28.4005 572.68 28.4005C570.324 28.4005 567.459 29.2865 565.398 30.6515ZM676.006 29.9005C678.426 37.5945 678.7 40.0715 677.581 44.1635C675.744 50.8845 671.099 55.2515 660.691 60.0425C660.022 60.3505 666.43 73.3875 669.998 78.9785C672.077 82.2355 676.625 87.6575 680.106 91.0275L686.435 97.1535L681.717 98.9075C674.904 101.441 663.021 107.741 664.271 108.158C664.856 108.353 668.185 107.064 671.668 105.293C675.15 103.523 680.817 101.081 684.259 99.8655L690.519 97.6585L684.982 93.3865C681.937 91.0375 677.217 86.1425 674.492 82.5085C667.064 72.6015 661.455 60.4005 664.329 60.4005C666.657 60.4005 674.852 53.6555 677.021 49.9545C680.195 44.5395 680.357 36.5305 677.397 31.4005C676.286 29.4755 675.66 28.8005 676.006 29.9005ZM748.374 32.3145C758.741 46.8595 757.067 76.8405 745.196 89.2385C741.941 92.6375 736.475 95.8825 731.028 97.6495C729.363 98.1895 720.125 98.9785 710.5 99.4025L693 100.174L711 99.9355C732.287 99.6535 736.955 98.4945 744.645 91.5805C752.067 84.9075 754.897 78.6315 756.471 65.3585C758.155 51.1565 754.767 36.8295 748.291 30.7685L745.228 27.9005L748.374 32.3145ZM483.053 68.6555L477.517 88.7895L479.758 91.2535L482 93.7175L478.75 91.3705C476.407 89.6795 475.5 88.2375 475.5 86.2065C475.5 84.6555 478.068 74.0875 481.206 62.7205C486.264 44.4005 487.008 42.4205 487.75 45.2865C488.417 47.8585 487.455 52.6435 483.053 68.6555ZM875.5 56.4005C875.5 64.4005 875.885 69.4005 876.5 69.4005C877.115 69.4005 877.5 64.4005 877.5 56.4005C877.5 48.4005 877.115 43.4005 876.5 43.4005C875.885 43.4005 875.5 48.4005 875.5 56.4005ZM819.118 82.6505C820.576 85.5385 823.039 89.7535 824.592 92.0185C829.62 99.3545 829.653 99.3465 794.5 99.6595L764 99.9305L795.271 100.166L826.543 100.401L827.671 97.9255C828.627 95.8265 828.413 94.8685 826.268 91.6255C824.876 89.5215 822.551 85.4605 821.101 82.6005C819.652 79.7405 818.016 77.4005 817.466 77.4005C816.916 77.4005 817.659 79.7625 819.118 82.6505ZM888.99 82.3805C889.837 84.0195 892.518 87.8005 894.947 90.7825C902.077 99.5365 902.74 99.3405 865 99.6595L833 99.9295L865.693 100.166C898.092 100.399 898.4 100.382 899.885 98.2615C901.288 96.2585 901.096 95.7695 896.882 90.5965C894.407 87.5575 891.721 83.7955 890.915 82.2355C890.108 80.6765 888.999 79.4005 888.449 79.4005C887.899 79.4005 888.142 80.7415 888.99 82.3805Z" fill="black"/>
<path fill-rule="evenodd" clip-rule="evenodd" d="M910.738 20.969C908.918 24.244 906.787 26.505 904.488 27.601C902.57 28.516 901 29.655 901 30.132C901 30.61 902.136 32.664 903.525 34.697C907.012 39.801 910.923 52.68 911.67 61.52C912.013 65.576 912.625 68.894 913.03 68.894C913.435 68.894 914.077 65.856 914.456 62.144C915.479 52.134 917.737 44.138 921.478 37.278L924.815 31.163L920.5 27.556C917.841 25.333 915.67 22.424 914.843 19.974L913.5 16L910.738 20.969ZM918 19.674C918 20.92 927.813 29.894 929.176 29.894C929.704 29.894 929.263 31.132 928.196 32.644C922.05 41.357 916.914 56.94 917.102 66.304C917.192 70.785 917.301 71.035 918.011 68.394C918.455 66.744 919.324 62.019 919.941 57.894C921.103 50.134 925.292 39.822 929.552 34.236C932.615 30.222 932.609 29.492 929.502 28.077C928.128 27.451 924.978 25.071 922.502 22.789C920.026 20.507 918 19.105 918 19.674ZM908.455 77.349C907.105 78.699 906 80.969 906 82.394C906 85.88 910.164 89.894 913.78 89.894C915.488 89.894 917.532 88.957 918.826 87.58C925.536 80.437 915.382 70.421 908.455 77.349ZM923.836 79.578C925.913 83.476 925.245 87.803 922.077 90.971C918.761 94.287 916.302 94.598 911.7 92.285C908.734 90.794 908.615 90.796 910.069 92.319C912.512 94.875 918.487 95.46 921.564 93.444C926.631 90.124 928.123 81.889 924.238 78.685C922.856 77.545 922.809 77.65 923.836 79.578Z" fill="#3AA394"/>
<path d="M419 74H421L422 78V86L419 93L414 98L407 102L404 101L409 95V83L408 80L419 74Z" fill="#45A79B"/>
<path d="M425 76H426V89L422 97L414 104L410 106L407 105L418 98L423 91L424 88L425 76Z" fill="#59AAA4"/>
<path d="M17 14H27L25 30L24 37H18L17 14Z" fill="#46A699"/>
<path d="M35 14H44L43 27L41 37H36L35 26V14Z" fill="#41A497"/>
<path d="M937 14H947L945 30L944 37H938L937 14Z" fill="#46A699"/>
<path d="M955 14H964L963 27L961 37H956L955 26V14Z" fill="#41A497"/>
</svg>
